<svg width="12" height="13" viewBox="0 0 12 13" fill="none" xmlns="http://www.w3.org/2000/svg">
<path fill-rule="evenodd" clip-rule="evenodd" d="M9.50012 0.5C9.50012 0.223858 9.27626 0 9.00012 0C8.72398 0 8.50012 0.223858 8.50012 0.5V1H3.50012V0.5C3.50012 0.223858 3.27626 0 3.00012 0C2.72398 0 2.50012 0.223858 2.50012 0.5V1H1.00012C0.447837 1 0.00012207 1.44772 0.00012207 2V12C0.00012207 12.5523 0.447837 13 1.00012 13H11.0001C11.5524 13 12.0001 12.5523 12.0001 12V2C12.0001 1.44772 11.5524 1 11.0001 1H9.50012V0.5ZM11.0001 4V2H9.50012V2.5C9.50012 2.77614 9.27626 3 9.00012 3C8.72398 3 8.50012 2.77614 8.50012 2.5V2H3.50012V2.5C3.50012 2.77614 3.27626 3 3.00012 3C2.72398 3 2.50012 2.77614 2.50012 2.5V2H1.00012V4H11.0001ZM1.00012 5H11.0001V12H1.00012V5Z" fill="#879A94"/>
</svg>
