<svg width="16" height="13" viewBox="0 0 16 13" fill="none" xmlns="http://www.w3.org/2000/svg">
<path d="M10.5 10C10.5 9.72386 10.7239 9.5 11 9.5H12C12.2761 9.5 12.5 9.72386 12.5 10C12.5 10.2761 12.2761 10.5 12 10.5H11C10.7239 10.5 10.5 10.2761 10.5 10Z" fill="#879A94"/>
<path d="M11 7C10.7239 7 10.5 7.22386 10.5 7.5C10.5 7.77614 10.7239 8 11 8H12C12.2761 8 12.5 7.77614 12.5 7.5C12.5 7.22386 12.2761 7 12 7H11Z" fill="#879A94"/>
<path d="M4 3C3.72386 3 3.5 3.22386 3.5 3.5C3.5 3.77614 3.72386 4 4 4H6C6.27614 4 6.5 3.77614 6.5 3.5C6.5 3.22386 6.27614 3 6 3H4Z" fill="#879A94"/>
<path d="M4.5 7.5C4.5 7.22386 4.72386 7 5 7H7C7.27614 7 7.5 7.22386 7.5 7.5C7.5 7.77614 7.27614 8 7 8H5C4.72386 8 4.5 7.77614 4.5 7.5Z" fill="#879A94"/>
<path d="M4 9.5C3.72386 9.5 3.5 9.72386 3.5 10C3.5 10.2761 3.72386 10.5 4 10.5H6C6.27614 10.5 6.5 10.2761 6.5 10C6.5 9.72386 6.27614 9.5 6 9.5H4Z" fill="#879A94"/>
<path fill-rule="evenodd" clip-rule="evenodd" d="M2.5 0.5C2.23478 0.5 1.98043 0.605357 1.79289 0.792893C1.60536 0.980429 1.5 1.23478 1.5 1.5V12H1C0.723858 12 0.5 12.2239 0.5 12.5C0.5 12.7761 0.723858 13 1 13H15C15.2761 13 15.5 12.7761 15.5 12.5C15.5 12.2239 15.2761 12 15 12H14.5V5.5C14.5 5.23478 14.3946 4.98043 14.2071 4.79289C14.0196 4.60536 13.7652 4.5 13.5 4.5H9.5V1.5C9.5 1.23478 9.39464 0.98043 9.20711 0.792893C9.01957 0.605357 8.76522 0.5 8.5 0.5H2.5ZM13.5 5.5V12H9.5V5.5H13.5ZM8.5 1.5V12H2.5V1.5H8.5Z" fill="#879A94"/>
</svg>
