<svg width="14" height="14" viewBox="0 0 14 14" fill="none" xmlns="http://www.w3.org/2000/svg">
<path fill-rule="evenodd" clip-rule="evenodd" d="M1.5 3C1.5 1.61929 2.61929 0.5 4 0.5C5.38071 0.5 6.5 1.61929 6.5 3C6.5 3.73205 6.18536 4.39061 5.68393 4.84782C5.75701 4.87936 5.82929 4.91299 5.90069 4.94868C6.30823 5.15245 6.67914 5.41982 7.00003 5.7396C7.32092 5.41982 7.69183 5.15245 8.09937 4.94868C8.17075 4.91299 8.24302 4.87937 8.31609 4.84784C7.81465 4.39063 7.5 3.73206 7.5 3C7.5 1.61929 8.61929 0.5 10 0.5C11.3807 0.5 12.5 1.61929 12.5 3C12.5 3.73205 12.1854 4.39061 11.6839 4.84782C11.757 4.87936 11.8293 4.91299 11.9007 4.94868C12.4908 5.24375 13.0042 5.67217 13.4 6.2C13.5657 6.42091 13.5209 6.73431 13.3 6.9C13.0791 7.06569 12.7657 7.02091 12.6 6.8C12.2973 6.39636 11.9048 6.06875 11.4535 5.84311C11.0022 5.61747 10.5046 5.5 10 5.5C9.49548 5.5 8.99787 5.61747 8.54659 5.84311C8.09852 6.06714 7.70836 6.3917 7.40652 6.79138C7.39081 6.81328 7.37316 6.83411 7.35363 6.8536C7.31186 6.89547 7.26393 6.92865 7.21241 6.95276C7.07622 7.01682 6.92008 7.01474 6.78765 6.95276C6.73613 6.92865 6.6882 6.89547 6.64643 6.8536C6.6269 6.83411 6.60926 6.81329 6.59355 6.79139C6.29171 6.3917 5.90154 6.06714 5.45347 5.84311C5.00219 5.61747 4.50458 5.5 4.00003 5.5C3.49548 5.5 2.99787 5.61747 2.54659 5.84311C2.0953 6.06875 1.70276 6.39636 1.40003 6.8C1.23434 7.02091 0.920943 7.06569 0.700029 6.9C0.479116 6.73431 0.434344 6.42091 0.600029 6.2C0.995904 5.67217 1.50924 5.24375 2.09937 4.94868C2.17075 4.91299 2.24302 4.87937 2.31609 4.84784C1.81465 4.39063 1.5 3.73206 1.5 3ZM4 1.5C3.17157 1.5 2.5 2.17157 2.5 3C2.5 3.82843 3.17157 4.5 4 4.5C4.82843 4.5 5.5 3.82843 5.5 3C5.5 2.17157 4.82843 1.5 4 1.5ZM10 1.5C9.17157 1.5 8.5 2.17157 8.5 3C8.5 3.82843 9.17157 4.5 10 4.5C10.8284 4.5 11.5 3.82843 11.5 3C11.5 2.17157 10.8284 1.5 10 1.5Z" fill="#879A94"/>
<path fill-rule="evenodd" clip-rule="evenodd" d="M4 7C2.61929 7 1.5 8.11929 1.5 9.5C1.5 10.2321 1.81465 10.8906 2.31609 11.3478C2.24302 11.3794 2.17075 11.413 2.09937 11.4487C1.50924 11.7438 0.995904 12.1722 0.600029 12.7C0.434344 12.9209 0.479116 13.2343 0.700029 13.4C0.920943 13.5657 1.23434 13.5209 1.40003 13.3C1.70276 12.8964 2.0953 12.5688 2.54659 12.3431C2.99787 12.1175 3.49548 12 4.00003 12C4.50458 12 5.00219 12.1175 5.45347 12.3431C5.90154 12.5671 6.29171 12.8917 6.59355 13.2914C6.60926 13.3133 6.6269 13.3341 6.64643 13.3536C6.6882 13.3955 6.73613 13.4286 6.78765 13.4528C6.8553 13.4846 6.92788 13.5001 7.00003 13.5C7.07218 13.5001 7.14475 13.4846 7.21241 13.4528C7.26393 13.4287 7.31186 13.3955 7.35363 13.3536C7.37316 13.3341 7.3908 13.3133 7.40651 13.2914C7.70835 12.8917 8.09852 12.5671 8.54659 12.3431C8.99787 12.1175 9.49548 12 10 12C10.5046 12 11.0022 12.1175 11.4535 12.3431C11.9048 12.5688 12.2973 12.8964 12.6 13.3C12.7657 13.5209 13.0791 13.5657 13.3 13.4C13.5209 13.2343 13.5657 12.9209 13.4 12.7C13.0042 12.1722 12.4908 11.7438 11.9007 11.4487C11.8293 11.413 11.757 11.3794 11.6839 11.3478C12.1854 10.8906 12.5 10.232 12.5 9.5C12.5 8.11929 11.3807 7 10 7C8.61929 7 7.5 8.11929 7.5 9.5C7.5 10.2321 7.81465 10.8906 8.31609 11.3478C8.24302 11.3794 8.17075 11.413 8.09937 11.4487C7.69183 11.6525 7.32092 11.9198 7.00003 12.2396C6.67914 11.9198 6.30823 11.6525 5.90069 11.4487C5.82929 11.413 5.75701 11.3794 5.68393 11.3478C6.18536 10.8906 6.5 10.232 6.5 9.5C6.5 8.11929 5.38071 7 4 7ZM2.5 9.5C2.5 8.67157 3.17157 8 4 8C4.82843 8 5.5 8.67157 5.5 9.5C5.5 10.3284 4.82843 11 4 11C3.17157 11 2.5 10.3284 2.5 9.5ZM10 8C9.17157 8 8.5 8.67157 8.5 9.5C8.5 10.3284 9.17157 11 10 11C10.8284 11 11.5 10.3284 11.5 9.5C11.5 8.67157 10.8284 8 10 8Z" fill="#879A94"/>
</svg>
