<svg width="14" height="13" viewBox="0 0 14 13" fill="none" xmlns="http://www.w3.org/2000/svg">
<path fill-rule="evenodd" clip-rule="evenodd" d="M4.69144 8.86351C3.37875 8.07745 2.5 6.64135 2.5 5C2.5 2.51472 4.51472 0.5 7 0.5C9.48528 0.5 11.5 2.51472 11.5 5C11.5 6.64136 10.6212 8.07747 9.30853 8.86353C9.80826 9.0252 10.2917 9.23957 10.7503 9.50437C11.8905 10.1627 12.8373 11.1097 13.4955 12.25C13.6335 12.4891 13.5516 12.7949 13.3124 12.933C13.0733 13.071 12.7675 12.9891 12.6294 12.7499C12.059 11.7616 11.2384 10.941 10.2502 10.3704C9.27859 9.80935 8.17858 9.50953 7.05731 9.49964C7.03823 9.49988 7.01913 9.5 7 9.5C6.98086 9.5 6.96174 9.49988 6.94266 9.49964C5.82137 9.50953 4.72134 9.80934 3.7497 10.3704C2.76152 10.941 1.94095 11.7616 1.3705 12.7499C1.23245 12.9891 0.92666 13.071 0.687501 12.933C0.448342 12.7949 0.366377 12.4891 0.504426 12.25C1.16264 11.1097 2.10945 10.1627 3.24966 9.50437C3.70829 9.23956 4.1917 9.02518 4.69144 8.86351ZM3.5 5C3.5 3.067 5.067 1.5 7 1.5C8.933 1.5 10.5 3.067 10.5 5C10.5 6.91485 8.96228 8.47055 7.05434 8.49959C7.03622 8.49946 7.01809 8.49939 6.99996 8.49939C6.98185 8.49939 6.96374 8.49946 6.94564 8.49959C5.03771 8.47053 3.5 6.91484 3.5 5Z" fill="#879A94"/>
</svg>
