<svg width="14" height="13" viewBox="0 0 14 13" fill="none" xmlns="http://www.w3.org/2000/svg">
<path d="M7.50012 0.5C7.50012 0.223858 7.27626 0 7.00012 0C6.72398 0 6.50012 0.223858 6.50012 0.5V5.79289L4.35368 3.64645C4.15841 3.45118 3.84183 3.45118 3.64657 3.64645C3.45131 3.84171 3.45131 4.15829 3.64657 4.35355L6.64657 7.35355C6.84183 7.54882 7.15841 7.54882 7.35368 7.35355L10.3537 4.35355C10.5489 4.15829 10.5489 3.84171 10.3537 3.64645C10.1584 3.45118 9.84183 3.45118 9.64657 3.64645L7.50012 5.79289V0.5Z" fill="#788E86"/>
<path d="M1.00012 6.5C0.734907 6.5 0.480552 6.60536 0.293015 6.79289C0.105479 6.98043 0.00012207 7.23478 0.00012207 7.5V11.5C0.00012207 11.7652 0.105479 12.0196 0.293015 12.2071C0.480552 12.3946 0.734907 12.5 1.00012 12.5H13.0001C13.2653 12.5 13.5197 12.3946 13.7072 12.2071C13.8948 12.0196 14.0001 11.7652 14.0001 11.5V7.5C14.0001 7.23479 13.8948 6.98043 13.7072 6.79289C13.5197 6.60536 13.2653 6.5 13.0001 6.5H10.0001C9.72398 6.5 9.50012 6.72386 9.50012 7C9.50012 7.27614 9.72398 7.5 10.0001 7.5H13.0001V11.5H1.00012V7.5L4.00012 7.5C4.27626 7.5 4.50012 7.27614 4.50012 7C4.50012 6.72386 4.27626 6.5 4.00012 6.5H1.00012Z" fill="#788E86"/>
<path d="M11.5001 9.5C11.5001 9.91421 11.1643 10.25 10.7501 10.25C10.3359 10.25 10.0001 9.91421 10.0001 9.5C10.0001 9.08579 10.3359 8.75 10.7501 8.75C11.1643 8.75 11.5001 9.08579 11.5001 9.5Z" fill="#788E86"/>
</svg>
