<svg width="12" height="14" viewBox="0 0 12 14" fill="none" xmlns="http://www.w3.org/2000/svg">
<path fill-rule="evenodd" clip-rule="evenodd" d="M3.5 5.5C3.5 4.11929 4.61929 3 6 3C7.38071 3 8.5 4.11929 8.5 5.5C8.5 6.88071 7.38071 8 6 8C4.61929 8 3.5 6.88071 3.5 5.5ZM6 4C5.17157 4 4.5 4.67157 4.5 5.5C4.5 6.32843 5.17157 7 6 7C6.82843 7 7.5 6.32843 7.5 5.5C7.5 4.67157 6.82843 4 6 4Z" fill="#879A94"/>
<path fill-rule="evenodd" clip-rule="evenodd" d="M1.5 14C1.22386 14 1 13.7761 1 13.5C1 13.2239 1.22386 13 1.5 13H4.59207C4.15839 12.6131 3.64096 12.1116 3.1227 11.5156C1.84408 10.0452 0.5 7.93003 0.5 5.5C0.5 4.04131 1.07946 2.64236 2.11091 1.61091C3.14236 0.579463 4.54131 0 6 0C7.45869 0 8.85764 0.579463 9.88909 1.61091C10.9205 2.64236 11.5 4.04131 11.5 5.5C11.5 7.93003 10.1559 10.0452 8.8773 11.5156C8.35904 12.1116 7.84161 12.6131 7.40793 13H10.5C10.7761 13 11 13.2239 11 13.5C11 13.7761 10.7761 14 10.5 14H1.5ZM2.81802 2.31802C3.66193 1.47411 4.80653 1 6 1C7.19347 1 8.33807 1.47411 9.18198 2.31802C10.0259 3.16193 10.5 4.30653 10.5 5.5C10.5 7.56997 9.34408 9.45482 8.1227 10.8594C7.51812 11.5547 6.91225 12.1152 6.45743 12.5018C6.27755 12.6547 6.12188 12.7799 6 12.875C5.87812 12.7799 5.72245 12.6547 5.54257 12.5018C5.08775 12.1152 4.48189 11.5547 3.8773 10.8594C2.65592 9.45482 1.5 7.56997 1.5 5.5C1.5 4.30653 1.97411 3.16193 2.81802 2.31802Z" fill="#879A94"/>
</svg>
