<svg width="13" height="14" viewBox="0 0 13 14" fill="none" xmlns="http://www.w3.org/2000/svg">
<path fill-rule="evenodd" clip-rule="evenodd" d="M5.75 0.5C2.57436 0.5 0 3.07436 0 6.25C0 9.42564 2.57436 12 5.75 12C7.1578 12 8.44744 11.4941 9.447 10.6541L12.1465 13.3536C12.3417 13.5488 12.6583 13.5488 12.8536 13.3536C13.0488 13.1583 13.0488 12.8417 12.8536 12.6465L10.1541 9.947C10.9941 8.94744 11.5 7.6578 11.5 6.25C11.5 3.07436 8.92564 0.5 5.75 0.5ZM1 6.25C1 3.62665 3.12665 1.5 5.75 1.5C8.37335 1.5 10.5 3.62665 10.5 6.25C10.5 8.87335 8.37335 11 5.75 11C3.12665 11 1 8.87335 1 6.25Z" fill="white"/>
</svg>
